:SAMPLES-PER-SECOND 30
:FULLY-SPECIFIED
:DEGREES
126
root  49.6977 18.0549 5.20686 97.1525 81.0593 53.8278
RightUpLeg  -9.76775 12.9254 6.43143
RightLeg  71.0337 7.60696 -10.8409
RightFoot  -12.4437 0.0559412 -8.67594
RightToes  1.74622e-010 -3.18055e-015 8.94531e-016
Spine  44.6059 -0.678821 -4.48149
Spine1  -7.95971 -0.509019 -19.8994
HEad  -55.6967 -3.77571 17.4355
LeftShoulder1  0 -2.69403e-036 -1.28585e-037
LeftArm  43.7852 -14.1982 -79.9246
LeftForeArm  -5.49556 -26.6431 19.5697
LeftHand  -3.18845 -0.593269 39.7009
RightShoulder  -2.48481e-017 0 -8.08114e-019
RightArm  -11.0695 35.9141 90.0186
RightForeArm  9.49678 0.283206 -5.88538
RightHand  7.44377 -20.1017 -40.8917
LeftUpLeg  -65.8311 -4.25558 -1.06833
LeftLeg  124.445 -10.2918 -5.73776
LeftFoot  7.16544 -0.444052 2.56575
LeftToes  4.94765e-010 2.02697e-011 4.00889e-011
127
root  50.5567 17.9214 5.0784 102.466 79.2981 58.1316
RightUpLeg  -8.17575 10.7964 3.75537
RightLeg  67.0429 6.67395 -10.8887
RightFoot  -11.3684 0.141586 -8.96182
RightToes  1.74622e-010 -3.18055e-015 8.94531e-016
Spine  43.0318 -1.37187 -6.10758
Spine1  -8.08807 -1.98702 -18.2576
HEad  -54.583 -2.5181 16.6289
LeftShoulder1  0 -2.69403e-036 -1.28585e-037
LeftArm  39.6802 -18.0993 -79.0586
LeftForeArm  -3.96814 -29.5928 20.8582
LeftHand  -2.95318 -0.417198 38.0431
RightShoulder  -2.48481e-017 0 -8.08114e-019
RightArm  -10.9427 34.1129 93.0065
RightForeArm  12.0923 0.219507 -4.95672
RightHand  7.79347 -20.4183 -42.1067
LeftUpLeg  -64.0052 -5.83429 -3.96609
LeftLeg  122.205 -11.2848 -4.52446
LeftFoot  9.29703 -0.507709 2.66877
LeftToes  4.94765e-010 2.02697e-011 4.00889e-011
128
root  51.4176 17.8256 4.91777 111.51 77.7899 65.6896
RightUpLeg  -7.20152 6.39212 1.15069
RightLeg  62.7835 5.857 -10.3974
RightFoot  -9.58608 0.290212 -9.26529
RightToes  1.74622e-010 -3.18055e-015 8.94531e-016
Spine  41.8937 -2.28041 -7.85244
Spine1  -9.36315 -4.10925 -14.0305
HEad  -53.7119 -0.968985 15.2909
LeftShoulder1  0 -2.69403e-036 -1.28585e-037
LeftArm  35.7345 -23.7996 -78.2576
LeftForeArm  -3.57235 -31.2664 21.601
LeftHand  -2.64316 -0.202097 35.6044
RightShoulder  -2.48481e-017 0 -8.08114e-019
RightArm  -10.4765 32.2807 95.7951
RightForeArm  14.8888 0.579853 -4.08377
RightHand  8.00124 -20.5847 -42.8693
LeftUpLeg  -63.0243 -7.9753 -5.64875
LeftLeg  120.275 -11.3063 -4.66165
LeftFoot  10.5975 -0.459279 2.31116
LeftToes  4.94765e-010 2.02697e-011 4.00889e-011
129
root  52.1973 17.7978 4.73757 120.105 76.8423 72.5212
RightUpLeg  -6.91032 2.41323 -0.389979
RightLeg  59.0908 5.48706 -9.36596
RightFoot  -7.15563 0.476337 -9.06752
RightToes  1.74622e-010 -3.18055e-015 8.94531e-016
Spine  41.5307 -2.89623 -9.70072
Spine1  -11.4276 -6.12068 -8.19462
HEad  -53.7928 0.755871 13.909
LeftShoulder1  0 -2.69403e-036 -1.28585e-037
LeftArm  32.2563 -30.8365 -77.2354
LeftForeArm  -4.76534 -31.1223 21.4682
LeftHand  -2.42685 -0.0165708 33.994
RightShoulder  -2.48481e-017 0 -8.08114e-019
RightArm  -9.98522 30.8343 98.4118
RightForeArm  17.9322 0.907913 -3.45143
RightHand  8.16006 -20.7055 -43.4578
LeftUpLeg  -62.6999 -10.0061 -6.01495
LeftLeg  118.627 -10.6772 -5.93077
LeftFoot  10.7169 -0.417967 2.10774
LeftToes  4.94765e-010 2.02697e-011 4.00889e-011
130
root  52.9014 17.8905 4.52826 125.075 76.7112 75.7041
RightUpLeg  -7.19268 1.72535 -0.678528
RightLeg  56.2602 5.51875 -8.17816
RightFoot  -4.71656 0.625592 -8.47086
RightToes  1.74622e-010 -3.18055e-015 8.94531e-016
Spine  41.7878 -2.98288 -11.6136
Spine1  -13.4257 -7.41822 -2.81469
HEad  -54.6285 2.43458 12.9709
LeftShoulder1  0 -2.69403e-036 -1.28585e-037
LeftArm  29.8692 -38.7226 -75.6292
LeftForeArm  -7.62079 -28.9015 20.3605
LeftHand  -2.25436 0.184531 32.9468
RightShoulder  -2.48481e-017 0 -8.08114e-019
RightArm  -9.38756 29.9361 100.692
RightForeArm  20.6779 1.13102 -2.79821
RightHand  8.32801 -20.839 -44.0466
LeftUpLeg  -62.1937 -11.2951 -5.78405
LeftLeg  116.656 -10.1648 -7.23117
LeftFoot  9.97999 -0.361863 1.89409
LeftToes  4.94765e-010 2.02697e-011 4.00889e-011
131
root  53.5715 18.095 4.25435 127.1 77.4391 76.162
RightUpLeg  -7.79723 3.45904 -0.350016
RightLeg  54.1895 6.05531 -6.63886
RightFoot  -2.08451 0.764331 -7.8868
RightToes  1.74622e-010 -3.18055e-015 8.94531e-016
Spine  42.2141 -2.90299 -12.9094
Spine1  -14.7436 -8.04929 0.972186
HEad  -55.4211 4.02516 12.1062
LeftShoulder1  0 -2.69403e-036 -1.28585e-037
LeftArm  28.234 -46.8146 -73.4498
LeftForeArm  -10.1684 -24.3507 17.7931
LeftHand  -2.02446 0.407763 31.1776
RightShoulder  -2.48481e-017 0 -8.08114e-019
RightArm  -8.42862 29.3421 102.534
RightForeArm  22.7723 1.41412 -1.98706
RightHand  8.47113 -20.9526 -44.5375
LeftUpLeg  -61.1892 -11.9025 -5.39072
LeftLeg  114.214 -10.1745 -7.78247
LeftFoot  8.86534 -0.21889 1.24767
LeftToes  4.94765e-010 2.02697e-011 4.00889e-011
132
root  54.2133 18.3813 3.91063 127.425 78.8753 75.2935
RightUpLeg  -8.87741 4.65981 -0.147445
RightLeg  53.1624 7.40114 -4.35057
RightFoot  1.62955 0.88744 -6.8486
RightToes  1.74622e-010 -3.18055e-015 8.94531e-016
Spine  42.9321 -2.89376 -12.9759
Spine1  -16.0051 -8.15848 3.02272
HEad  -55.6834 5.44718 10.8825
LeftShoulder1  0 -2.69403e-036 -1.28585e-037
LeftArm  11.401 -54.3746 -70.2139
LeftForeArm  4.46151 -18.3323 9.07251
LeftHand  -1.82447 0.500864 28.9352
RightShoulder  -2.48481e-017 0 -8.08114e-019
RightArm  -7.42846 28.6638 103.94
RightForeArm  24.3155 1.46511 -1.23274
RightHand  8.60985 -21.0647 -44.9972
LeftUpLeg  -60.0626 -12.0589 -4.86633
LeftLeg  111.808 -10.3825 -7.95736
LeftFoot  7.92507 -0.188616 1.12802
LeftToes  4.94765e-010 2.02697e-011 4.00889e-011
133
root  54.8203 18.7043 3.52276 124.377 81.0238 71.4943
RightUpLeg  -10.8091 4.18518 -0.217105
RightLeg  54.0848 9.15948 -1.83773
RightFoot  5.4896 0.735797 -4.49734
RightToes  1.74622e-010 -3.18055e-015 8.94531e-016
Spine  43.8765 -2.63648 -12.1246
Spine1  -17.3009 -7.59639 3.90844
HEad  -55.8468 6.65676 9.51648
LeftShoulder1  0 -2.69403e-036 -1.28585e-037
LeftArm  2.11153 -60.1323 -68.0453
LeftForeArm  11.4093 -10.7179 5.79301
LeftHand  -1.66803 0.542329 26.937
RightShoulder  -2.48481e-017 0 -8.08114e-019
RightArm  -6.88176 27.8108 104.962
RightForeArm  25.6336 1.00896 -0.833987
RightHand  8.78373 -21.1961 -45.5912
LeftUpLeg  -58.9544 -11.5281 -4.16924
LeftLeg  109.754 -10.5322 -8.19885
LeftFoot  7.47956 -0.266489 1.56794
LeftToes  4.94765e-010 2.02697e-011 4.00889e-011
134
root  55.4064 19.0089 3.11412 111.444 83.5349 58.3195
RightUpLeg  -13.7617 3.21965 -0.344337
RightLeg  57.9806 10.3514 -0.16258
RightFoot  6.66604 0.289151 -1.66937
RightToes  1.74622e-010 -3.18055e-015 8.94531e-016
Spine  44.9936 -1.84128 -11.0781
Spine1  -18.3688 -6.40776 4.08884
HEad  -56.3634 7.73596 8.45482
LeftShoulder1  0 -2.69403e-036 -1.28585e-037
LeftArm  2.03542 -64.3516 -67.2677
LeftForeArm  9.23604 -5.00537 5.36253
LeftHand  -1.2986 0.931366 23.5586
RightShoulder  -2.48481e-017 0 -8.08114e-019
RightArm  -6.76956 26.9537 105.538
RightForeArm  26.8653 0.318152 -0.628856
RightHand  8.94533 -21.2911 -46.2209
LeftUpLeg  -57.4108 -10.0954 -3.49138
LeftLeg  107.903 -10.6593 -8.47553
LeftFoot  7.49298 -0.340894 1.97065
LeftToes  4.94765e-010 2.02697e-011 4.00889e-011
135
root  56.0339 19.2825 2.69029 81.551 85.2393 28.662
RightUpLeg  -17.6526 2.66158 -0.232146
RightLeg  64.8345 10.8942 0.766049
RightFoot  4.20089 0.061549 -0.41261
RightToes  1.74622e-010 -3.18055e-015 8.94531e-016
Spine  46.4942 -0.816479 -9.78502
Spine1  -19.4124 -4.9227 3.73539
HEad  -56.9739 8.62405 7.56179
LeftShoulder1  0 -2.69403e-036 -1.28585e-037
LeftArm  3.18268 -67.3034 -68.0061
LeftForeArm  7.27392 -0.480861 4.78072
LeftHand  -0.678048 1.70937 17.3346
RightShoulder  -2.48481e-017 0 -8.08114e-019
RightArm  -6.87775 26.0538 105.281
RightForeArm  27.9098 -0.10243 -0.214702
RightHand  9.06465 -21.3511 -46.7122
LeftUpLeg  -55.0868 -8.33839 -2.81025
LeftLeg  105.907 -10.7608 -8.94918
LeftFoot  7.59246 -0.365864 2.0975
LeftToes  4.94765e-010 2.02697e-011 4.00889e-011
136
root  56.7107 19.5133 2.25647 46.6297 85.4381 -5.91324
RightUpLeg  -22.6017 2.08181 0.325214
RightLeg  73.8024 11.1897 1.83469
RightFoot  0.0209084 0.152378 -1.32182
RightToes  1.74622e-010 -3.18055e-015 8.94531e-016
Spine  48.1444 -0.0232891 -8.00206
Spine1  -20.7007 -3.4545 3.35626
HEad  -57.3307 9.25394 6.25884
LeftShoulder1  0 -2.69403e-036 -1.28585e-037
LeftArm  6.30986 -68.5382 -71.7654
LeftForeArm  6.95652 1.2769 4.58933
LeftHand  -0.252516 2.26743 11.9584
RightShoulder  -2.48481e-017 0 -8.08114e-019
RightArm  -7.09531 24.8973 104.066
RightForeArm  28.6437 -0.0546603 0.40027
RightHand  9.21087 -21.4795 -47.122
LeftUpLeg  -52.4986 -7.25446 -1.87834
LeftLeg  103.755 -10.7499 -10.0737
LeftFoot  7.44184 -0.361614 2.0874
LeftToes  4.94765e-010 2.02697e-011 4.00889e-011
137
root  57.3915 19.6558 1.83389 22.098 85.0192 -30.4901
RightUpLeg  -28.8713 1.21753 1.27869
RightLeg  83.9255 11.1557 3.3901
RightFoot  -4.15629 0.235811 -2.98757
RightToes  1.74622e-010 -3.18055e-015 8.94531e-016
Spine  49.242 0.549929 -6.11563
Spine1  -22.1582 -2.06708 3.50778
HEad  -57.4936 9.47144 4.56128
LeftShoulder1  0 -2.69403e-036 -1.28585e-037
LeftArm  9.73089 -67.5335 -77.522
LeftForeArm  7.53627 1.3241 4.77794
LeftHand  -0.297835 2.33155 13.2422
RightShoulder  -2.48481e-017 0 -8.08114e-019
RightArm  -7.69049 23.4201 102.124
RightForeArm  29.401 0.314616 1.0566
RightHand  9.41151 -21.6866 -47.5679
LeftUpLeg  -50.3859 -7.17348 -0.737409
LeftLeg  101.65 -10.6855 -11.8395
LeftFoot  7.1475 -0.388933 2.26372
LeftToes  4.94765e-010 2.02697e-011 4.00889e-011
138
root  58.0814 19.7023 1.44032 5.67206 84.5174 -47.2879
RightUpLeg  -36.1332 0.45517 2.38008
RightLeg  94.2452 10.582 5.00708
RightFoot  -8.83724 0.152555 -3.99407
RightToes  1.74622e-010 -3.18055e-015 8.94531e-016
Spine  49.7343 1.11295 -4.46031
Spine1  -23.6939 -0.699729 4.0286
HEad  -57.5362 8.8192 3.2556
LeftShoulder1  0 -2.69403e-036 -1.28585e-037
LeftArm  11.4283 -64.8739 -82.7804
LeftForeArm  7.74215 1.39574 5.02862
LeftHand  -0.706057 2.11393 20.2184
RightShoulder  -2.48481e-017 0 -8.08114e-019
RightArm  -8.86901 21.702 99.5486
RightForeArm  30.6926 0.8338 1.96172
RightHand  9.57945 -21.8393 -47.9981
LeftUpLeg  -48.6036 -7.67519 0.302421
LeftLeg  99.6146 -10.7363 -13.672
LeftFoot  6.97691 -0.455149 2.64855
LeftToes  4.94765e-010 2.02697e-011 4.00889e-011
